PathFileType	4	(X/Y/Z)	/Users/itak/Documents/Research/Walk-IL/dataset/trc/00009_00004.trc
DataRate	CameraRate	NumFrames	NumMarkers	Units	OrigDataRate	OrigDataStartFrame	OrigNumFrames
100.000000	100.000000	4	53	mm	100.000000	393	630
Frame#	Time	RPSI			LPSI			L3			STRN			T10			C7			CLAV			RBAK			LBAK			LSHO			LUPA			LAEL			LAOL			LWTS			LWPS			LFRA			LIFD			LHPS			LHTS			RSHO			RUPA			RAEL			RAOL			RWTS			RWPS			RFRA			RIFD			RHTS			RHPS			RBHD			LFHD			RFHD			LBHD			LHIP			RHIP			RASI			LASI			LKNE			LTHI			LANK			LTIP			LTOE			LMT1			LMT5			LHEE			RKNE			RTHI			RANK			RTIP			RTOE			RMT1			RMT5			RHEE			
		X1	Y1	Z1	X2	Y2	Z2	X3	Y3	Z3	X4	Y4	Z4	X5	Y5	Z5	X6	Y6	Z6	X7	Y7	Z7	X8	Y8	Z8	X9	Y9	Z9	X10	Y10	Z10	X11	Y11	Z11	X12	Y12	Z12	X13	Y13	Z13	X14	Y14	Z14	X15	Y15	Z15	X16	Y16	Z16	X17	Y17	Z17	X18	Y18	Z18	X19	Y19	Z19	X20	Y20	Z20	X21	Y21	Z21	X22	Y22	Z22	X23	Y23	Z23	X24	Y24	Z24	X25	Y25	Z25	X26	Y26	Z26	X27	Y27	Z27	X28	Y28	Z28	X29	Y29	Z29	X30	Y30	Z30	X31	Y31	Z31	X32	Y32	Z32	X33	Y33	Z33	X34	Y34	Z34	X35	Y35	Z35	X36	Y36	Z36	X37	Y37	Z37	X38	Y38	Z38	X39	Y39	Z39	X40	Y40	Z40	X41	Y41	Z41	X42	Y42	Z42	X43	Y43	Z43	X44	Y44	Z44	X45	Y45	Z45	X46	Y46	Z46	X47	Y47	Z47	X48	Y48	Z48	X49	Y49	Z49	X50	Y50	Z50	X51	Y51	Z51	X52	Y52	Z52	X53	Y53	Z53	

394	3.93	592.0436401367188	1045.080078125	-229.4332733154297	571.5938720703125	1042.815795898438	-391.5294494628906	577.0453491210938	1114.467041015625	-321.0482788085938	794.4808349609375	1306.708862304688	-339.9860229492188	548.1162719726562	1256.552612304688	-330.1497497558594	592.6305541992188	1523.7333984375	-352.6428833007812	751.4450073242188	1432.071899414062	-347.4185180664062	543.4945068359375	1390.011596679688	-266.2042846679688	573.2775268554688	1479.291625976562	-448.4376525878906	675.3521118164062	1483.97412109375	-524.0160522460938	642.3746337890625	1360.088012695312	-601.729248046875	640.643310546875	1144.245361328125	-631.7092895507812	585.936767578125	1127.826293945312	-542.9627075195312	766.3903198242188	912.0498046875	-573.491943359375	692.419189453125	882.4815063476562	-613.523193359375	668.0738525390625	1031.181030273438	-636.706787109375	826.966796875	737.9296875	-550.5752563476562	741.5264892578125	800.6957397460938	-611.1900634765625	805.8527221679688	826.633056640625	-587.791015625	676.162353515625	1515.09423828125	-179.8938903808594	664.2466430664062	1446.63720703125	-104.9537734985352	620.720947265625	1183.341064453125	-64.94657897949219	615.9439697265625	1149.502197265625	-158.6979522705078	755.5499267578125	926.460205078125	-88.38798522949219	695.6224975585938	912.6739501953125	-20.53247261047363	635.4066772460938	1107.736083984375	-45.31949615478516	781.0055541992188	741.7214965820312	-97.74507141113281	793.5261840820312	818.6240844726562	-71.31960296630859	740.4164428710938	813.701171875	-19.01862335205078	656.32568359375	1701.71435546875	-273.9563598632812	833.737548828125	1715.088745117188	-388.4043579101562	830.3795166015625	1713.7744140625	-289.8803405761719	653.2454223632812	1708.161499023438	-418.0186462402344	658.7382202148438	948.8413696289062	-508.4212646484375	724.7890014648438	947.3911743164062	-140.3231964111328	811.552978515625	984.1485595703125	-226.2751007080078	780.8325805664062	995.654052734375	-460.2177429199219	711.8369140625	504.8726501464844	-452.4789428710938	685.0170288085938	641.2464599609375	-488.6553344726562	559.8216552734375	32.95111465454102	-423.6063537597656	609.4137573242188	273.7390441894531	-453.83251953125	772.1527099609375	31.67696380615234	-333.6436767578125	711.0762329101562	42.22589492797852	-326.3623046875	685.7101440429688	29.33049774169922	-431.1901245117188	485.9220275878906	46.31531524658203	-378.478759765625	879.2708740234375	538.3489990234375	-179.4730224609375	788.4287109375	795.5748901367188	-141.8801727294922	747.8557739257812	49.72362518310547	-185.8325958251953	858.2387084960938	411.186279296875	-173.0397338867188	977.5546875	51.53044128417969	-207.4101715087891	918.2276611328125	53.55376815795898	-243.3387145996094	891.6781616210938	42.4611701965332	-150.1294555664062	697.2078857421875	53.43960952758789	-235.7947845458984	
395	3.94	599.4985961914062	1044.317749023438	-228.9668426513672	578.483154296875	1042.158447265625	-391.0073852539062	584.2575073242188	1113.762084960938	-320.5375061035156	801.8086547851562	1306.018798828125	-340.0941772460938	555.3587646484375	1255.875854492188	-329.5881958007812	599.98193359375	1523.049560546875	-352.1558837890625	758.7973022460938	1431.405639648438	-347.387451171875	551.0052490234375	1389.326171875	-265.6051635742188	580.40380859375	1478.605590820312	-447.8973388671875	682.2611083984375	1483.262084960938	-523.7551879882812	649.0693359375	1359.392456054688	-601.3444213867188	647.39990234375	1143.444580078125	-631.2760620117188	592.761962890625	1127.082641601562	-542.4388427734375	773.6668701171875	911.6456909179688	-572.7113647460938	699.7177734375	881.7913208007812	-612.6532592773438	675.0531005859375	1030.415283203125	-636.0973510742188	834.5527954101562	737.676025390625	-549.4414672851562	748.9185180664062	800.0862426757812	-610.1775512695312	813.2366333007812	826.1558227539062	-586.809814453125	683.9253540039062	1514.3544921875	-179.6031799316406	672.1922607421875	1445.876708984375	-104.656982421875	628.8107299804688	1182.544677734375	-64.5889892578125	623.7448120117188	1148.736694335938	-158.3224182128906	764.0567626953125	925.9237060546875	-88.70244598388672	704.4489135742188	911.9495849609375	-20.61916542053223	643.700927734375	1106.911865234375	-45.03843307495117	789.8357543945312	741.251953125	-98.35997009277344	802.328125	818.1643676757812	-71.88986206054688	749.3917236328125	813.0628662109375	-19.41785621643066	663.7549438476562	1701.020751953125	-273.7178649902344	841.068115234375	1714.36328125	-388.30810546875	837.766357421875	1713.054809570312	-289.7554931640625	660.5485229492188	1707.45263671875	-417.7824096679688	664.9583129882812	948.2091064453125	-508.2649841308594	732.6204223632812	946.7367553710938	-140.2926788330078	819.00146484375	983.4290161132812	-226.6481323242188	787.4960327148438	994.8689575195312	-460.4768981933594	715.0059814453125	504.1459045410156	-452.5970764160156	689.46533203125	640.7398681640625	-488.5438842773438	559.8641967773438	33.21751022338867	-423.47802734375	610.96142578125	273.7427978515625	-453.7979736328125	772.229248046875	31.66909408569336	-333.6177062988281	711.0873413085938	42.17366790771484	-326.3231506347656	685.7557373046875	29.32245254516602	-431.1778869628906	485.9962463378906	46.91762924194336	-378.4128723144531	887.9344482421875	538.6329956054688	-179.8864135742188	796.3043212890625	795.1870727539062	-141.8042297363281	773.5228271484375	46.46292495727539	-186.7451934814453	870.559814453125	411.3647766113281	-173.6862335205078	1003.232727050781	52.10808181762695	-209.508056640625	943.6557006835938	53.46989059448242	-245.0266265869141	917.6856689453125	41.67355346679688	-151.7066650390625	722.6695556640625	49.66266250610352	-236.3450012207031	
396	3.95	606.9815063476562	1043.477783203125	-228.4316101074219	585.3530883789062	1041.439086914062	-390.4147033691406	591.4662475585938	1112.996948242188	-319.9493713378906	809.15380859375	1305.253173828125	-340.1593933105469	562.635009765625	1255.142700195312	-328.9458618164062	607.362060546875	1522.311889648438	-351.5984191894531	766.1751098632812	1430.679443359375	-347.315673828125	558.5491333007812	1388.586303710938	-264.9312744140625	587.5381469726562	1477.865234375	-447.2850341796875	689.1705932617188	1482.486083984375	-523.442626953125	655.7467651367188	1358.627563476562	-600.8911743164062	654.1314697265625	1142.568237304688	-630.746826171875	599.5682983398438	1126.271728515625	-541.80224609375	780.857421875	911.1168212890625	-571.8838500976562	706.9041748046875	881.0127563476562	-611.7156372070312	681.9686889648438	1029.5634765625	-635.40771484375	841.999755859375	737.2738647460938	-548.3011474609375	756.1515502929688	799.363037109375	-609.1280517578125	820.5057373046875	825.5479736328125	-585.80810546875	691.7376098632812	1513.5458984375	-179.2519073486328	680.1860961914062	1445.049194335938	-104.3014526367188	636.8933715820312	1181.691284179688	-64.16323852539062	631.5228881835938	1147.911010742188	-157.8749847412109	772.5287475585938	925.317626953125	-88.96282196044922	713.2594604492188	911.1627807617188	-20.64043617248535	651.9865112304688	1106.030883789062	-44.68726348876953	798.6090087890625	740.7138671875	-98.92445373535156	811.10009765625	817.638671875	-72.40511322021484	758.3555297851562	812.3646850585938	-19.7520694732666	671.2122192382812	1700.257568359375	-273.427978515625	848.4135131835938	1713.590698242188	-388.1843872070312	845.1746215820312	1712.283813476562	-289.597412109375	667.8639526367188	1706.662719726562	-417.4983520507812	671.1157836914062	947.5396118164062	-508.0770263671875	740.5066528320312	945.9912719726562	-140.2420349121094	826.4888305664062	982.6417846679688	-227.0025329589844	794.1394653320312	994.038818359375	-460.7070007324219	718.2552490234375	503.4253234863281	-452.7063903808594	693.8882446289062	640.23681640625	-488.4437866210938	559.9171752929688	33.51739501953125	-423.3578491210938	612.5712890625	273.7580261230469	-453.7789916992188	772.2916259765625	31.63992309570312	-333.5795593261719	711.0930786132812	42.11270523071289	-326.2829284667969	685.8101806640625	29.31539535522461	-431.1649475097656	486.0682678222656	47.57439804077148	-378.3563842773438	896.3641967773438	538.7217407226562	-180.2859954833984	804.1769409179688	794.6773071289062	-141.73046875	798.905029296875	43.7349739074707	-187.5292510986328	882.6155395507812	411.4828796386719	-174.3178253173828	1028.432006835938	53.05757522583008	-211.9674987792969	968.5574951171875	53.78088760375977	-246.9668579101562	943.3887329101562	41.29914093017578	-153.4869995117188	747.7598266601562	46.39450454711914	-236.6771850585938	
397	3.96	614.4998779296875	1042.564086914062	-227.822021484375	592.221435546875	1040.659912109375	-389.7419738769531	598.6787719726562	1112.174194335938	-319.2786560058594	816.516845703125	1304.416870117188	-340.1797485351562	569.9497680664062	1254.357666015625	-328.2198181152344	614.7723999023438	1521.5244140625	-350.971435546875	773.577392578125	1429.896240234375	-347.2007446289062	566.1258544921875	1387.7958984375	-264.1829528808594	594.681396484375	1477.075805664062	-446.6017150878906	696.0813598632812	1481.650512695312	-523.078125	662.41064453125	1357.79541015625	-600.3720703125	660.843505859375	1141.62158203125	-630.1245727539062	606.3673095703125	1125.396240234375	-541.0569458007812	787.9710693359375	910.4674072265625	-571.0153198242188	713.9898071289062	880.1524047851562	-610.7179565429688	688.8272705078125	1028.631103515625	-634.6419067382812	849.3237915039062	736.7318725585938	-547.1587524414062	763.240966796875	798.532958984375	-608.0468139648438	827.6726684570312	824.82080078125	-584.791015625	699.6010131835938	1512.673950195312	-178.8414306640625	688.231201171875	1444.159057617188	-103.8883895874023	644.9810180664062	1180.7841796875	-63.67292785644531	639.2940673828125	1147.030029296875	-157.3611450195312	780.9676513671875	924.6417236328125	-89.16455841064453	722.0465087890625	910.3160400390625	-20.59807777404785	660.2648315429688	1105.097412109375	-44.2723274230957	807.3339233398438	740.1071166992188	-99.42388153076172	819.8378295898438	817.0454711914062	-72.85756683349609	767.3042602539062	811.6090698242188	-20.01275062561035	678.701171875	1699.428344726562	-273.0850219726562	855.7781982421875	1712.773071289062	-388.029296875	852.6104125976562	1711.462768554688	-289.4054260253906	675.197265625	1705.798217773438	-417.1637573242188	677.2403564453125	946.8467407226562	-507.8479614257812	748.4596557617188	945.158935546875	-140.1691589355469	834.02392578125	981.7943725585938	-227.3359527587891	800.7679443359375	993.1685180664062	-460.90087890625	721.5826416015625	502.7134704589844	-452.8117065429688	698.2870483398438	639.745849609375	-488.3554077148438	559.9841918945312	33.85384368896484	-423.2490844726562	614.2398681640625	273.7896118164062	-453.7764282226562	772.3394165039062	31.59034729003906	-333.5320129394531	711.09814453125	42.05419540405273	-326.2479858398438	685.8740234375	29.3078670501709	-431.15234375	486.14306640625	48.28895950317383	-378.3121032714844	904.58447265625	538.6157836914062	-180.6748504638672	812.0589599609375	794.0470581054688	-141.6628265380859	823.9642944335938	41.5172004699707	-188.1755065917969	894.4134521484375	411.5452270507812	-174.9264984130859	1053.08984375	54.53780746459961	-214.7901458740234	992.87158203125	54.58423614501953	-249.1526489257812	968.7454223632812	41.43258285522461	-155.4718627929688	772.4319458007812	43.56000137329102	-236.7750549316406	
